<svg version="1.1" viewBox="0.0 0.0 960.0 720.0" fill="none" stroke="none" stroke-linecap="square" stroke-miterlimit="10" xmlns:xlink="http://www.w3.org/1999/xlink" xmlns="http://www.w3.org/2000/svg"><clipPath id="p.0"><path d="m0 0l960.0 0l0 720.0l-960.0 0l0 -720.0z" clip-rule="nonzero"/></clipPath><g clip-path="url(#p.0)"><path fill="#000000" fill-opacity="0.0" d="m0 0l960.0 0l0 720.0l-960.0 0z" fill-rule="evenodd"/><path fill="#b19cd9" d="m142.27559 244.45753l0 0c0 -23.35588 18.933685 -42.28955 42.289566 -42.28955l174.31851 0l0 0c11.215881 0 21.972412 4.45549 29.903229 12.386322c7.930847 7.930832 12.386322 18.687347 12.386322 29.903229l0 169.15318c0 23.355865 -18.933685 42.28955 -42.28955 42.28955l-174.31851 0c-23.35588 0 -42.289566 -18.933685 -42.289566 -42.28955z" fill-rule="evenodd"/><path fill="#000000" fill-opacity="0.0" d="m242.19948 271.3727l741.8898 0l0 86.55118l-741.8898 0z" fill-rule="evenodd"/><path fill="#ffffff" d="m331.4026 421.1727l-13.03125 -33.296875l-41.96875 0l-12.890625 33.296875l-12.312485 0l41.39061 -105.125l10.234375 0l41.1875 105.125l-12.609375 0zm-16.828125 -44.25l-12.171875 -32.4375q-2.359375 -6.171875 -4.875 -15.109375q-1.578125 6.875 -4.515625 15.109375l-12.3125 32.4375l33.875 0zm43.821533 44.25l0 -104.6875l12.171875 0l0 104.6875l-12.171875 0z" fill-rule="nonzero"/><path fill="#000000" d="m427.05066 421.1727l-10.375 0l0 -97.25l10.375 0l0 97.25zm32.375 0l-10.375 0l0 -97.25l10.375 0l0 97.25zm50.9375 1.25q-15.1875 0 -23.96875 -9.25q-8.78125 -9.25 -8.78125 -25.6875q0 -16.5625 8.15625 -26.3125q8.15625 -9.75 21.90625 -9.75q12.875 0 20.375 8.46875q7.5 8.46875 7.5 22.34375l0 6.5625l-47.1875 0q0.3125 12.0625 6.09375 18.3125q5.78125 6.25 16.28125 6.25q11.0625 0 21.875 -4.625l0 9.25q-5.5 2.375 -10.40625 3.40625q-4.90625 1.03125 -11.84375 1.03125zm-2.8125 -62.3125q-8.25 0 -13.15625 5.375q-4.90625 5.375 -5.78125 14.875l35.8125 0q0 -9.8125 -4.375 -15.03125q-4.375 -5.21875 -12.5 -5.21875zm76.9375 -8.6875q4.5625 0 8.1875 0.75l-1.4375 9.625q-4.25 -0.9375 -7.5 -0.9375q-8.3125 0 -14.21875 6.75q-5.90625 6.75 -5.90625 16.8125l0 36.75l-10.375 0l0 -68.5l8.5625 0l1.1875 12.6875l0.5 0q3.8125 -6.6875 9.1875 -10.3125q5.375 -3.625 11.8125 -3.625zm77.0625 1.25l0 6.5625l-12.6875 1.5q1.75 2.1875 3.125 5.71875q1.375 3.53125 1.375 7.96875q0 10.0625 -6.875 16.0625q-6.875 6.0 -18.875 6.0q-3.0625 0 -5.75 -0.5q-6.625 3.5 -6.625 8.8125q0 2.8125 2.3125 4.15625q2.3125 1.34375 7.9375 1.34375l12.125 0q11.125 0 17.09375 4.6875q5.96875 4.6875 5.96875 13.625q0 11.375 -9.125 17.34375q-9.125 5.96875 -26.625 5.96875q-13.4375 0 -20.71875 -5.0q-7.28125 -5.0 -7.28125 -14.125q0 -6.25 4.0 -10.8125q4.0 -4.5625 11.25 -6.1875q-2.625 -1.1875 -4.40625 -3.6875q-1.78125 -2.5 -1.78125 -5.8125q0 -3.75 2.0 -6.5625q2.0 -2.8125 6.3125 -5.4375q-5.3125 -2.1875 -8.65625 -7.4375q-3.34375 -5.25 -3.34375 -12.0q0 -11.25 6.75 -17.34375q6.75 -6.09375 19.125 -6.09375q5.375 0 9.6875 1.25l23.6875 0zm-54.625 80.0q0 5.5625 4.6875 8.4375q4.6875 2.875 13.4375 2.875q13.0625 0 19.34375 -3.90625q6.28125 -3.90625 6.28125 -10.59375q0 -5.5625 -3.4375 -7.71875q-3.4375 -2.15625 -12.9375 -2.15625l-12.4375 0q-7.0625 0 -11.0 3.375q-3.9375 3.375 -3.9375 9.6875zm5.625 -58.0625q0 7.1875 4.0625 10.875q4.0625 3.6875 11.3125 3.6875q15.1875 0 15.1875 -14.75q0 -15.4375 -15.375 -15.4375q-7.3125 0 -11.25 3.9375q-3.9375 3.9375 -3.9375 11.6875zm52.1875 -21.9375l11.125 0l15.0 39.0625q4.9375 13.375 6.125 19.3125l0.5 0q0.8125 -3.1875 3.40625 -10.90625q2.59375 -7.71875 16.96875 -47.46875l11.125 0l-29.4375 78.0q-4.375 11.5625 -10.21875 16.40625q-5.84375 4.84375 -14.34375 4.84375q-4.75 0 -9.375 -1.0625l0 -8.3125q3.4375 0.75 7.6875 0.75q10.6875 0 15.25 -12.0l3.8125 -9.75l-27.625 -68.875z" fill-rule="nonzero"/></g></svg>